<svg id="Layer_1" data-name="Layer 1" xmlns="http://www.w3.org/2000/svg" viewBox="0 0 23 17.72"><path d="M21.94,10.32a.88.88,0,0,0,0-1.76ZM1.7,9.44l-.62-.62a.87.87,0,0,0,0,1.28ZM9,17.14a.87.87,0,0,0,1.24-.08.88.88,0,0,0-.07-1.24Zm1.21-15A.88.88,0,1,0,9,.9Zm11.5,6.42H1.7v1.76H21.75a.19.19,0,0,0,.19-.19V8.75A.19.19,0,0,0,21.75,8.56ZM1.27,10.23,8.89,17a.19.19,0,0,0,.28,0l.9-1a.19.19,0,0,0,0-.28L2.29,8.78,1.25,10A.2.2,0,0,0,1.27,10.23Zm1.06-.17L10.1,2.29a.21.21,0,0,0,0-.29L9.15,1a.21.21,0,0,0-.29,0L1.23,8.67a.21.21,0,0,0,0,.29Z" transform="translate(-0.32 -0.14)" style="fill:#f1b537;stroke:#f1b537;stroke-miterlimit:10"/></svg>